<?xml version="1.0" encoding="iso-8859-1"?>
<!-- Generator: Adobe Illustrator 16.0.0, SVG Export Plug-In . SVG Version: 6.00 Build 0)  -->
<!DOCTYPE svg PUBLIC "-//W3C//DTD SVG 1.1//EN" "http://www.w3.org/Graphics/SVG/1.1/DTD/svg11.dtd">
<svg version="1.1" id="Layer_1" xmlns="http://www.w3.org/2000/svg" xmlns:xlink="http://www.w3.org/1999/xlink" x="0px" y="0px"
	 width="792px" height="1224px" viewBox="0 0 792 1224" style="enable-background:new 0 0 792 1224;" xml:space="preserve">
<path style="fill-rule:evenodd;clip-rule:evenodd;fill:#0A336C;" d="M641.936,611.137c-0.099,136.844-110.525,247.967-246.247,247.8
	c-135.742-0.167-245.917-111.541-245.689-248.36c0.228-136.636,110.494-247.609,245.999-247.577
	C531.729,363.032,642.034,474.324,641.936,611.137z"/>
<path style="fill-rule:evenodd;clip-rule:evenodd;fill:#FFFFFF;" d="M541.231,574.621c4.919,0,8.927-0.068,12.929,0.016
	c6.931,0.146,11.195,3.874,11.283,10.671c0.211,16.637,0.194,33.279,0.014,49.917c-0.069,6.432-4.062,10.285-10.652,10.723
	c-4.212,0.279-8.457,0.053-13.573,0.053c0,11.273,0.017,21.986-0.004,32.697c-0.025,11.641-4.217,15.928-15.774,15.932
	c-86.346,0.02-172.693,0.018-259.038,0c-11.022-0.002-14.946-3.961-14.951-15.09c-0.025-46.096-0.023-92.192-0.002-138.289
	c0.007-11.163,3.775-14.879,15.062-14.882c86.122-0.015,172.242-0.013,258.363-0.001c12.482,0.001,16.334,3.951,16.342,16.604
	C541.238,553.289,541.231,563.605,541.231,574.621z"/>
</svg>
