<?xml version="1.0" encoding="iso-8859-1"?>
<!-- Generator: Adobe Illustrator 16.0.0, SVG Export Plug-In . SVG Version: 6.00 Build 0)  -->
<!DOCTYPE svg PUBLIC "-//W3C//DTD SVG 1.1//EN" "http://www.w3.org/Graphics/SVG/1.1/DTD/svg11.dtd">
<svg version="1.1" id="Layer_1" xmlns="http://www.w3.org/2000/svg" xmlns:xlink="http://www.w3.org/1999/xlink" x="0px" y="0px"
	 width="792px" height="1224px" viewBox="0 0 792 1224" style="enable-background:new 0 0 792 1224;" xml:space="preserve">
<path style="fill:#357795;" d="M425.979,354.791c7.996,0.752,15.515,3.654,23.268,5.504c2.258,0.539,39.271,11.351,55.025,18.267
	c13.827,6.07,26.821,13.08,39.125,21.565c22.901,15.796,42.521,34.952,59.002,57.448c13.83,18.879,24.723,39.478,33.229,60.982
	c4.522,11.435,9.257,23.205,11.311,35.798c1.962,12.032,4.22,24.053,6.359,36.076c0.715,4.021,0.828,7.878-0.06,11.864
	c-0.501,2.251-0.87,4.683-0.571,6.938c2.078,15.69-1.391,31.146-2.66,46.596c-0.942,11.486-1.941,23.666-9.335,34.038
	c-3.138,4.402-4.333,10.453-5.485,15.949c-1.875,8.946-6.153,16.707-9.996,24.836c-5.285,11.185-12.741,20.923-19.414,31.083
	c-10.862,16.536-21.729,33.478-39.466,44.05c-1.382,0.823-2.519,2.16-3.562,3.43c-9.244,11.25-20.803,19.292-34.155,24.908
	c-1.51,0.635-2.905,1.591-4.26,2.535c-14.3,9.971-30.191,16.353-46.654,21.854c-12.657,4.229-25.376,7.793-38.452,10.424
	c-18.414,3.704-36.914,4.307-55.479,2.357c-11.854-1.243-23.846-0.572-35.604-3.37c-13.57-3.229-26.871-7.144-40.125-11.537
	c-11.481-3.808-21.992-9.252-32.783-14.431c-16.669-7.999-31.342-18.884-45.672-30.192c-16.255-12.827-29.518-28.719-41.57-45.439
	c-7.94-11.017-15.871-22.349-21.571-34.579c-5.133-11.013-9.799-22.408-13.811-34.068c-5.344-15.536-9.449-31.123-11.593-47.321
	c-2.928-22.131-3.909-44.159-0.4-66.449c2.116-13.448,3.896-26.915,6.537-40.304c1.91-9.678,5.494-18.766,9.969-27.011
	c7.872-14.506,13.47-30.114,23.064-43.862c8.771-12.565,18.394-24.304,27.879-36.258c6.77-8.531,15.545-14.479,23.134-21.879
	c8.758-8.539,18.914-15.509,29.062-22.388c12.985-8.802,27.168-15.357,41.65-21.016c12.043-4.706,24.747-7.665,37.282-11.035
	c8.741-2.35,17.563-3.148,26.302-4.88c2.904-0.575,5.952-0.421,8.935-0.601C374.438,354.897,411.105,353.393,425.979,354.791z
	 M601.273,614.773c0.036,0,0.073,0,0.11,0c0-6.664,0.147-13.332-0.039-19.99c-0.218-7.832-3.132-11.438-10.488-13.813
	c-3.883-1.255-7.885-1.123-11.874-1.306c-7.968-0.365-10.339-1.939-12.306-9.021c-0.876-3.154-0.955-6.562-1.136-9.87
	c-0.237-4.324-0.471-8.595-1.438-12.873c-1.102-4.878-3.598-7.907-8.627-8.151c-7.321-0.355-74.914-2.778-101.465-3.806
	c-30.921-1.196-122.835-2.484-137.83-2.436c-8.341,0.026-43.376-1.342-52.637-1.34c-8.89,0.001-17.925-1.419-26.792,0.848
	c-3.812,0.976-7.237,2.538-7.615,6.803c-0.528,5.948-2.744,40.25-0.962,51.514c0.806,5.089-1.424,10.438-1.57,15.818
	c-0.685,25.241,1.536,50.525-1.186,75.745c-0.607,5.628,2.955,10.207,8.307,12.218c3.519,1.32,7.188,1.533,10.843,1.335
	c21.295-1.152,42.54,0.973,63.794,1.447c15.896,0.354,73.438,1.254,82.506,1.775c24.584,1.414,101.021,2.514,114.63,2.933
	c14.253,0.437,28.47,1.372,42.735,0.004c8.142-0.78,11.19-2.936,13.525-10.721c1.956-6.519,1.598-13.192,1.617-19.845
	c0.018-5.346,0.197-10.639,1.718-15.837c1.129-3.857,3.267-5.355,7.374-4.707c3.923,0.62,7.949,0.834,11.929,0.809
	c10.764-0.071,16.369-5.519,16.819-16.539C601.505,628.779,601.273,621.771,601.273,614.773z"/>
<path style="fill:#92897B;" d="M601.273,614.773c0,6.998,0.23,14.006-0.055,20.991c-0.451,11.021-6.057,16.469-16.819,16.539
	c-3.979,0.026-8.006-0.188-11.929-0.808c-4.107-0.649-6.245,0.849-7.374,4.707c-1.521,5.198-1.7,10.491-1.718,15.837
	c-0.021,6.651,0.339,13.326-1.617,19.845c-2.335,7.785-5.385,9.939-13.525,10.72c-14.267,1.368-28.482,0.434-42.735-0.004
	c-13.609-0.418-90.046-1.518-114.63-2.932c-9.068-0.521-66.611-1.422-82.506-1.776c-21.254-0.475-42.499-2.6-63.794-1.446
	c-3.654,0.197-7.324-0.015-10.843-1.335c-5.352-2.011-8.914-6.591-8.307-12.219c2.722-25.219,0.501-50.503,1.186-75.745
	c0.146-5.381,2.003-61.382,2.532-67.332c0.378-4.264,3.804-5.827,7.615-6.802c8.867-2.267,17.902-0.847,26.792-0.848
	c9.261-0.002,44.297,1.366,52.637,1.34c14.994-0.049,106.91,1.238,137.83,2.435c26.552,1.028,94.144,3.45,101.465,3.807
	c5.029,0.244,7.525,3.272,8.628,8.15c0.966,4.279,1.198,8.55,1.437,12.873c0.181,3.309,0.26,6.716,1.136,9.871
	c1.967,7.082,4.338,8.656,12.306,9.021c3.989,0.183,7.991,0.051,11.874,1.306c7.356,2.377,10.271,5.981,10.488,13.813
	c0.188,6.657,0.039,13.325,0.039,19.989C601.348,614.773,601.311,614.773,601.273,614.773z M509.198,691.316
	c5.995,0,11.989,0.023,17.984-0.009c5.994-0.03,11.992,0.003,17.979-0.233c3.249-0.129,5.796-1.45,5.93-5.336
	c0.375-10.924,3.408-101.432,3.617-113.903c0.072-4.305,0.668-8.55-0.302-12.882c-1.717-7.675-3.44-9.15-11.166-10.212
	c-8.312-1.143-16.63,0.49-24.858-0.326c-13.909-1.381-27.823-1.681-41.771-1.625c-5.628,0.022-11.188,0.67-16.892,0.4
	c-13.286-0.627-26.554-1.865-39.814-2.252c-34.126-0.994-68.28-1.208-102.425-1.263c-5.771-0.009-52.542-1.118-70.431-1.637
	c-5.673-0.164-8.056,1.481-9.017,6.887c-0.403,2.271-0.26,4.645-0.299,6.972c-0.213,12.63-1.521,97.207-1.885,116.48
	c-0.05,2.65-0.021,5.38,0.549,7.944c0.792,3.562,3.118,6.302,7.042,5.646c10.052-1.674,167.56,3.279,199.119,4.457
	C464.779,691.257,486.98,691.271,509.198,691.316z M592.116,615.128c-0.556-5.149,2.127-11.719,0.173-18.375
	c-1.436-4.891-4.859-7.559-10.196-7.481c-5.193,0.076-8.747,3.178-9.332,8.409c-0.589,5.272-0.927,10.573-1.457,15.854
	c-0.671,6.676,0.197,13.301,1.312,19.797c1.162,6.775,4.76,9.781,9.603,9.539c6.277-0.313,9.541-3.903,9.858-11.31
	C592.289,626.579,592.116,621.58,592.116,615.128z"/>
<path style="fill:#357795;" d="M372.019,625.202c-4.198,1.438-9.161,0.59-14.079-0.229c-8.029-1.333-10.338-7.104-5.077-13.517
	c3.779-4.608,54.698-42.278,61.188-47.408c2.17-1.715,4.49-2.745,7.258-2.943c6.85-0.492,9.279,2.201,7.928,8.844
	c-1.024,5.025-4.199,9.014-6.388,13.479c-4.011,8.189-2.595,10.658,6.479,11.529c1.986,0.19,4.037,0.07,5.956,0.523
	c7.372,1.742,9.784,8.092,5.168,14.436c-4.49,6.171-32.963,36.87-42.792,45.85c-2.301,2.104-4.95,3.339-7.635,4.607
	c-5.703,2.694-7.688,1.712-9.194-4.177c-0.692-2.703-0.573-5.294,0.655-7.778c0.885-1.787,2.027-3.447,2.887-5.245
	C390.219,630.911,386.256,624.773,372.019,625.202z"/>
</svg>
