<?xml version="1.0" encoding="utf-8"?>
<!-- Generator: Adobe Illustrator 16.0.0, SVG Export Plug-In . SVG Version: 6.00 Build 0)  -->
<!DOCTYPE svg PUBLIC "-//W3C//DTD SVG 1.1//EN" "http://www.w3.org/Graphics/SVG/1.1/DTD/svg11.dtd">
<svg version="1.1" id="Layer_1" xmlns="http://www.w3.org/2000/svg" xmlns:xlink="http://www.w3.org/1999/xlink" x="0px" y="0px"
	 width="516px" height="524px" viewBox="139.5 350.5 516 524" enable-background="new 139.5 350.5 516 524" xml:space="preserve">
<path fill="#0A336C" d="M641.936,611.137c-0.099,136.845-110.524,247.967-246.246,247.801
	C259.947,858.77,149.772,747.396,150,610.577C150.228,473.941,260.494,362.968,395.999,363
	C531.729,363.032,642.034,474.324,641.936,611.137z"/>
<path fill="#FFFFFF" d="M541.231,574.621c4.919,0,8.927-0.068,12.929,0.016c6.931,0.146,11.195,3.874,11.283,10.671
	c0.211,16.638,0.193,33.279,0.014,49.917c-0.069,6.433-4.062,10.285-10.652,10.724c-4.212,0.278-8.457,0.053-13.572,0.053
	c0,11.273,0.017,21.986-0.004,32.697c-0.025,11.641-4.218,15.928-15.774,15.932c-86.346,0.021-172.693,0.019-259.038,0
	c-11.022-0.002-14.946-3.961-14.951-15.09c-0.025-46.096-0.023-92.192-0.002-138.289c0.007-11.163,3.775-14.879,15.062-14.882
	c86.123-0.016,172.243-0.014,258.363-0.001c12.482,0.001,16.334,3.951,16.343,16.604
	C541.238,553.289,541.231,563.605,541.231,574.621z"/>
</svg>
