<?xml version="1.0" encoding="utf-8"?>
<!-- Generator: Adobe Illustrator 16.0.0, SVG Export Plug-In . SVG Version: 6.00 Build 0)  -->
<!DOCTYPE svg PUBLIC "-//W3C//DTD SVG 1.1//EN" "http://www.w3.org/Graphics/SVG/1.1/DTD/svg11.dtd">
<svg version="1.1" id="Layer_1" xmlns="http://www.w3.org/2000/svg" xmlns:xlink="http://www.w3.org/1999/xlink" x="0px" y="0px"
	 width="553px" height="516px" viewBox="101.5 353.5 553 516" enable-background="new 101.5 353.5 553 516" xml:space="preserve">
<ellipse fill="#FFC544" cx="396" cy="612" rx="247" ry="248"/>
<path fill="#FFFFFF" d="M457.305,559.52c1.069,1.63,2.139,3.259,3.205,4.888c12.742,16.954,16.742,36.256,15.322,57.013
	c-2.145,8.697-3.155,17.637-7.422,25.823c-5.526,10.611-12.822,19.681-21.4,27.894c-1.824,1.746-4.711,1.354-6.051,3.649
	c-15.229,9.837-31.87,14.353-50.013,13.577c-14.965-0.641-28.215-6.099-40.578-14.057c-8.188-5.271-14.666-12.353-20.297-20.234
	c-0.292-0.973-0.312-2.116-1.57-2.479c-0.113-0.213-0.291-0.332-0.533-0.355c-0.104-1.053-0.208-2.104-1.287-2.692
	c-0.533-1.197-1.065-2.393-1.601-3.59c0.141-1.101-0.576-1.726-1.291-2.353c0.043-0.26-0.031-0.479-0.222-0.664
	c-0.29-2.312-1.137-4.383-2.702-6.133c-3.424-11.967-5.223-24.161-5.146-36.619c-0.017-0.322-0.031-0.648-0.052-0.976
	c0.146-0.271,0.204-0.561,0.181-0.869c1.235-0.81,0.93-1.868,0.474-2.95c0.225-1.636,0.446-3.271,0.673-4.908
	c3.324-10.95,7.473-21.603,14.501-30.711c17.146-22.22,40.165-32.474,68.018-32.345c1.251,0.006,2.503,0.483,3.756,0.74
	c1.638,0.075,3.272,0.146,4.907,0.22c11.324,2.572,22.184,6.221,31.94,12.801C446.572,548.54,451.608,554.378,457.305,559.52z
	 M336.77,627.711c0.065,2.396,0.54,4.662,2.067,6.598c1.928,5.876,4.745,11.457,8.386,16.28
	c15.657,20.741,43.731,28.763,68.267,20.069c6.41-2.271,12.143-5.869,18.163-8.908c13.138-9.823,20.692-22.921,22.968-39.124
	c0.551-1.22,1.194-2.421,0.843-3.841c1.233-15.719-2.304-30.125-11.771-42.905c-0.312-1.336-0.877-2.493-2.196-3.116
	c-9.355-13.314-22.543-20.29-38.244-23.104c-1.219-0.752-2.475-1.37-3.977-0.95c-15.066-0.81-28.938,2.473-40.99,11.974
	c-1.831,0.396-3.529,1.039-4.769,2.548c-12.182,9.63-18.331,22.606-20.864,37.592c-1.035,2.037-0.607,4.179-0.445,6.301
	c-0.579,5.921-0.769,11.799,1.854,17.379C336.296,625.57,336.532,626.641,336.77,627.711z"/>
<path fill="#FFFFFF" d="M425,711.299c2.129-0.452,2.334,1.026,2.68,2.523c4.356,18.871,8.168,37.873,13.311,56.559
	c0.503,1.833,0.206,2.639-1.722,3.014c-4.438,0.867-8.885,1.767-13.264,2.895c-3.042,0.783-2.661-1.61-3.112-3.071
	c-4.884-15.763-8.031-31.95-11.621-48.023c-2.375-10.646-2.143-10.69,8.994-12.854C421.851,712.028,423.422,711.646,425,711.299z"/>
<path fill="#FFFFFF" d="M348.191,704.996c-0.346,0.559-0.769,1.245-1.188,1.935c-9.497,15.53-19.003,31.054-28.474,46.6
	c-1.336,2.19-2.477,3.511-5.066,1.194c-2.01-1.796-4.576-3.24-6.964-4.248c-5.251-2.211-5.022-4.808-2.391-9.014
	c9.31-14.885,18.387-29.916,27.556-44.891c0.68-1.113,1.312-2.418,2.972-1.354c4.208,2.704,8.403,5.433,12.608,8.143
	C347.8,703.717,348.312,704.076,348.191,704.996z"/>
<path fill="#FFFFFF" d="M297.837,640.411c0.44,2.61-1.154,3.256-3.295,3.729c-9.604,2.116-19.235,4.15-28.757,6.604
	c-6.304,1.624-12.493,3.665-19.046,4.078c-8.509,1.765-8.509,1.765-10.636-6.455c-2.531-9.775-2.548-9.854,7.408-12.029
	c15.611-3.409,31.372-6.146,46.8-10.363c3.092-0.844,4.438-0.07,4.957,3.129C295.886,632.909,296.96,636.645,297.837,640.411z"/>
<path fill="#FFFFFF" d="M491.111,476.04c-0.383,0.554-0.865,1.185-1.275,1.861c-9.894,16.312-21.703,31.392-30.976,48.1
	c-1.187,2.136-2.313,2.108-4.2,0.81c-3.191-2.196-6.473-4.312-9.904-6.102c-3.212-1.676-2.98-3.546-1.311-6.188
	c9.854-15.55,19.812-31.021,30.433-46.067c1.242-1.759,2.099-2.62,4.202-1.3c3.832,2.408,7.795,4.606,11.688,6.919
	C490.449,474.479,491.191,474.907,491.111,476.04z"/>
<path fill="#FFFFFF" d="M381.023,506.391c0.28,1.354-0.26,2.508-2.028,2.926c-0.312,0.072-0.604,0.229-0.906,0.339
	c-14.492,5.223-14.362,5.192-17.748-10.039c-3.146-14.161-6.509-28.274-10.003-42.354c-0.812-3.266-0.097-4.789,3.174-5.397
	c3.641-0.682,7.293-1.396,10.832-2.46c2.256-0.681,3.286-0.211,3.813,2.035c4.211,17.891,8.461,35.771,12.691,53.657
	C380.924,505.411,380.938,505.737,381.023,506.391z"/>
<path fill="#FFFFFF" d="M261.282,516.89c0.817,0.54,1.617,1.066,2.417,1.596c12.508,8.254,24.996,16.541,37.544,24.733
	c2.685,1.754,5.545,3.26,8.404,4.725c2.577,1.317,2.493,3.087,1.167,5.171c-0.693,1.087-1.64,2.03-2.222,3.165
	c-1.538,2.995-2.844,7.492-5.517,8.026c-3.284,0.656-6.539-2.886-9.62-4.843c-12.942-8.223-25.674-16.775-38.626-24.98
	c-3.299-2.093-3.642-3.768-1.253-6.809c2.05-2.606,4.283-5.265,4.808-8.793C258.624,517.274,260.302,517.657,261.282,516.89z"/>
<path fill="#FFFFFF" d="M560.502,580.09c0.498,2.946-1.33,3.154-3.141,3.59c-14.729,3.552-29.446,7.154-44.17,10.735
	c-3.131,0.761-6.354,1.243-9.379,2.302c-4.115,1.439-5.938,0.447-6.994-4.009c-3.08-12.986-3.438-13.682,9.396-16.528
	c16.013-3.551,32.005-7.156,47.923-11.097c1.863-0.461,2.783-0.009,3.201,1.729C558.438,571.356,559.508,575.908,560.502,580.09z"/>
<path fill="#FFFFFF" d="M489.73,659.561c0.627,0.326,1.508,0.711,2.312,1.217c15.487,9.651,30.945,19.354,46.465,28.955
	c2.863,1.771,3.688,3.391,1.389,6.38c-2.252,2.926-4.041,6.229-5.832,9.478c-1.396,2.529-3.132,2.479-5.127,1.044
	c-14.975-10.747-30.926-19.968-46.539-29.709c-2.844-1.771-3.391-3.112-1.382-5.854c2.188-2.983,3.979-6.259,5.935-9.413
	C487.553,660.681,488.127,659.693,489.73,659.561z"/>
<path fill="#7D7A7D" d="M255.385,638.534c3.982-8.406,7.248-15.862,10.976-23.078c24.864-48.123,73.79-50.254,108.553-32.736
	c36.349,18.316,55.538,48.998,59.396,89.302c0.405,4.229,1.956,6.308,5.666,8.129c20.161,9.898,34.265,25.017,39.396,47.443
	c9.628,42.076-21.651,86.328-64.545,91.257c-5.281,0.606-10.626,0.932-15.942,0.937c-69.824,0.061-139.648,0.093-209.473,0.018
	c-34.29-0.037-63.037-19.771-74.219-50.653c-13.313-36.771,2.772-77.436,37.727-95.011c2.986-1.501,4.318-3.028,4.623-6.602
	c1.699-19.908,12.737-33.481,30.1-42.271c21.055-10.655,47.188-6.621,64.857,9.784C253.463,635.946,254.197,637.087,255.385,638.534
	z"/>
</svg>
