<?xml version="1.0" encoding="iso-8859-1"?>
<!-- Generator: Adobe Illustrator 16.0.0, SVG Export Plug-In . SVG Version: 6.00 Build 0)  -->
<!DOCTYPE svg PUBLIC "-//W3C//DTD SVG 1.1//EN" "http://www.w3.org/Graphics/SVG/1.1/DTD/svg11.dtd">
<svg version="1.1" id="Layer_1" xmlns="http://www.w3.org/2000/svg" xmlns:xlink="http://www.w3.org/1999/xlink" x="0px" y="0px"
	 width="792px" height="1224px" viewBox="0 0 792 1224" style="enable-background:new 0 0 792 1224;" xml:space="preserve">
<g>
	<path style="fill:#FFFFFF;" d="M272.333,850c0-133.333,0-266.667,0-400c177.333,0,354.666,0,532,0c0,133.333,0,266.667,0,400
		C626.999,850,449.666,850,272.333,850z M523.718,602.534c-1.188-1.447-1.922-2.588-2.886-3.483
		c-17.669-16.407-43.803-20.441-64.857-9.784c-17.362,8.789-28.4,22.362-30.1,42.271c-0.305,3.571-1.637,5.101-4.623,6.602
		c-34.955,17.575-51.04,58.237-37.727,95.009c11.182,30.883,39.929,50.618,74.219,50.655c69.824,0.075,139.648,0.043,209.473-0.018
		c5.316-0.005,10.661-0.328,15.942-0.935c42.894-4.929,74.173-49.181,64.545-91.257c-5.133-22.429-19.234-37.545-39.396-47.445
		c-3.71-1.821-5.261-3.899-5.666-8.128c-3.858-40.303-23.048-70.984-59.396-89.301c-34.765-17.518-83.688-15.387-108.553,32.736
		C530.966,586.672,527.7,594.128,523.718,602.534z"/>
	<path style="fill-rule:evenodd;clip-rule:evenodd;" d="M382.385,588.534c3.982-8.406,7.248-15.862,10.976-23.078
		c24.864-48.123,73.788-50.254,108.553-32.736c36.349,18.316,55.538,48.998,59.396,89.301c0.405,4.229,1.956,6.307,5.666,8.128
		c20.161,9.9,34.263,25.017,39.396,47.445c9.628,42.076-21.651,86.328-64.545,91.257c-5.281,0.606-10.626,0.93-15.942,0.935
		c-69.824,0.061-139.648,0.093-209.473,0.018c-34.29-0.037-63.037-19.772-74.219-50.655c-13.313-36.771,2.772-77.434,37.727-95.009
		c2.986-1.501,4.318-3.03,4.623-6.602c1.699-19.908,12.737-33.481,30.1-42.271c21.055-10.657,47.188-6.623,64.857,9.784
		C380.463,585.946,381.197,587.087,382.385,588.534z"/>
</g>
</svg>
