<?xml version="1.0" encoding="iso-8859-1"?>
<!-- Generator: Adobe Illustrator 16.0.0, SVG Export Plug-In . SVG Version: 6.00 Build 0)  -->
<!DOCTYPE svg PUBLIC "-//W3C//DTD SVG 1.1//EN" "http://www.w3.org/Graphics/SVG/1.1/DTD/svg11.dtd">
<svg version="1.1" id="Layer_1" xmlns="http://www.w3.org/2000/svg" xmlns:xlink="http://www.w3.org/1999/xlink" x="0px" y="0px"
	 width="792px" height="1224px" viewBox="0 0 792 1224" style="enable-background:new 0 0 792 1224;" xml:space="preserve">
<ellipse style="fill:#7DB6D3;" cx="421" cy="330" rx="247" ry="248"/>
<g>
	<path style="fill:#FFFFFF;" d="M860,573c0-269,0-538,0-807c208.002,0,415.998,0,624,0c0,269,0,538,0,807
		C1275.998,573,1068.002,573,860,573z M1404.59,409.824c0.373-3.043,0.816-4.959,0.818-6.875
		c0.041-118.961,0.154-237.922-0.258-356.879c-0.018-5.625-3.498-12.336-7.424-16.676c-46.588-51.535-93.732-102.57-140.291-154.133
		c-7.277-8.064-14.607-11.77-25.67-11.77c-89.971,0.014-179.936-0.57-269.906-0.926c-3.352-0.016-6.709,0.422-10.447,0.672
		c0,182.656,0,364.293,0,546.586C1102.59,409.824,1252.883,409.824,1404.59,409.824z"/>
	<path style="fill-rule:evenodd;clip-rule:evenodd;fill:#FFFFFF;" d="M535.768,451.523c-71.606,0-142.545,0-213.9,0
		c0-86.042,0-171.776,0-257.989c1.764-0.119,3.349-0.324,4.931-0.318c42.466,0.169,84.929,0.443,127.395,0.437
		c5.222,0,8.682,1.749,12.117,5.556c21.975,24.338,44.229,48.426,66.217,72.75c1.854,2.049,3.496,5.216,3.504,7.871
		c0.196,56.147,0.142,112.298,0.122,168.448C536.15,449.182,535.943,450.087,535.768,451.523z M343.502,210.212
		c0,75.452,0,149.896,0,224.436c57.041,0,113.477,0,170.145,0c0-49.657,0-98.724,0-148.859c-24.153,0-47.832,0-72.545,0
		c0-25.912,0-50.77,0-75.576C408.27,210.212,376.511,210.212,343.502,210.212z"/>
	<path style="fill-rule:evenodd;clip-rule:evenodd;fill:#FFFFFF;" d="M1033.297-53.877c55.949,0,109.775,0,165.422,0
		c0,42.045,0,84.176,0,128.096c41.889,0,82.02,0,122.959,0c0,84.975,0,168.137,0,252.305c-96.047,0-191.701,0-288.381,0
		C1033.297,200.184,1033.297,74.008,1033.297-53.877z"/>
</g>
</svg>
