<?xml version="1.0" encoding="utf-8"?>
<!-- Generator: Adobe Illustrator 16.0.0, SVG Export Plug-In . SVG Version: 6.00 Build 0)  -->
<!DOCTYPE svg PUBLIC "-//W3C//DTD SVG 1.1//EN" "http://www.w3.org/Graphics/SVG/1.1/DTD/svg11.dtd">
<svg version="1.1" id="Layer_1" xmlns="http://www.w3.org/2000/svg" xmlns:xlink="http://www.w3.org/1999/xlink" x="0px" y="0px"
	 width="509px" height="514px" viewBox="141.5 356.5 509 514" enable-background="new 141.5 356.5 509 514" xml:space="preserve">
<ellipse fill="#FFC544" cx="396" cy="612" rx="247" ry="248"/>
<path fill="#FFFFFF" d="M457.305,559.52c1.069,1.629,2.138,3.258,3.205,4.887c12.742,16.954,16.742,36.256,15.322,57.013
	c-2.145,8.697-3.155,17.637-7.422,25.823c-5.526,10.611-12.822,19.681-21.4,27.894c-1.824,1.746-4.711,1.353-6.051,3.649
	c-15.229,9.837-31.87,14.353-50.013,13.577c-14.965-0.64-28.215-6.098-40.578-14.056c-8.188-5.271-14.666-12.353-20.297-20.235
	c-0.292-0.972-0.311-2.116-1.57-2.478c-0.113-0.213-0.291-0.332-0.533-0.356c-0.104-1.052-0.208-2.104-1.287-2.692
	c-0.534-1.197-1.066-2.393-1.601-3.59c0.141-1.1-0.576-1.725-1.291-2.352c0.043-0.26-0.031-0.479-0.222-0.664
	c-0.29-2.312-1.136-4.383-2.702-6.133c-3.424-11.967-5.222-24.161-5.145-36.619c-0.017-0.323-0.032-0.649-0.052-0.976
	c0.145-0.271,0.204-0.561,0.181-0.869c1.235-0.81,0.929-1.868,0.473-2.95c0.225-1.636,0.447-3.271,0.673-4.908
	c3.324-10.951,7.473-21.603,14.501-30.711c17.146-22.22,40.165-32.474,68.018-32.345c1.251,0.006,2.503,0.483,3.755,0.74
	c1.638,0.075,3.273,0.146,4.908,0.22c11.324,2.572,22.183,6.221,31.94,12.801C446.572,548.54,451.608,554.378,457.305,559.52z
	 M336.77,627.711c0.065,2.396,0.54,4.662,2.067,6.598c1.928,5.876,4.745,11.457,8.386,16.28
	c15.657,20.741,43.731,28.763,68.266,20.069c6.41-2.271,12.143-5.869,18.163-8.908c13.138-9.823,20.693-22.921,22.968-39.124
	c0.551-1.22,1.195-2.421,0.843-3.841c1.233-15.719-2.304-30.125-11.771-42.905c-0.312-1.336-0.877-2.493-2.197-3.116
	c-9.355-13.315-22.543-20.29-38.244-23.105c-1.219-0.752-2.475-1.37-3.977-0.95c-15.066-0.81-28.937,2.473-40.99,11.974
	c-1.831,0.396-3.529,1.039-4.768,2.547c-12.182,9.63-18.331,22.607-20.865,37.592c-1.035,2.037-0.607,4.179-0.445,6.301
	c-0.579,5.921-0.768,11.799,1.854,17.379C336.296,625.57,336.532,626.641,336.77,627.711z"/>
<path fill="#FFFFFF" d="M425,711.299c2.129-0.452,2.334,1.026,2.68,2.523c4.356,18.871,8.168,37.873,13.31,56.559
	c0.503,1.833,0.206,2.639-1.721,3.014c-4.439,0.867-8.885,1.766-13.264,2.894c-3.042,0.783-2.661-1.61-3.112-3.071
	c-4.884-15.763-8.032-31.95-11.621-48.024c-2.375-10.645-2.143-10.69,8.994-12.854C421.851,712.028,423.422,711.646,425,711.299z"/>
<path fill="#FFFFFF" d="M348.191,704.996c-0.345,0.559-0.768,1.245-1.188,1.935c-9.497,15.53-19.003,31.053-28.474,46.599
	c-1.336,2.191-2.476,3.511-5.066,1.195c-2.01-1.796-4.576-3.241-6.964-4.248c-5.251-2.211-5.022-4.808-2.391-9.014
	c9.31-14.885,18.387-29.916,27.556-44.891c0.68-1.113,1.312-2.418,2.972-1.354c4.208,2.704,8.403,5.432,12.608,8.142
	C347.8,703.717,348.312,704.076,348.191,704.996z"/>
<path fill="#FFFFFF" d="M297.837,640.411c0.44,2.61-1.154,3.256-3.295,3.729c-9.604,2.116-19.235,4.15-28.757,6.604
	c-6.304,1.624-12.493,3.665-19.046,4.078c-8.509,1.765-8.509,1.765-10.636-6.455c-2.531-9.775-2.548-9.854,7.408-12.029
	c15.611-3.409,31.372-6.147,46.8-10.363c3.092-0.844,4.438-0.071,4.957,3.128C295.886,632.909,296.96,636.645,297.837,640.411z"/>
<path fill="#FFFFFF" d="M491.111,476.04c-0.383,0.554-0.865,1.185-1.275,1.861c-9.894,16.312-21.703,31.392-30.976,48.1
	c-1.186,2.136-2.313,2.108-4.2,0.81c-3.191-2.197-6.473-4.312-9.904-6.102c-3.212-1.676-2.981-3.546-1.311-6.188
	c9.854-15.549,19.813-31.021,30.433-46.067c1.242-1.759,2.099-2.62,4.202-1.3c3.832,2.408,7.795,4.607,11.688,6.919
	C490.449,474.479,491.191,474.907,491.111,476.04z"/>
<path fill="#FFFFFF" d="M381.023,506.391c0.281,1.354-0.259,2.507-2.028,2.925c-0.312,0.073-0.604,0.229-0.906,0.339
	c-14.492,5.223-14.362,5.193-17.748-10.039c-3.146-14.161-6.509-28.274-10.003-42.354c-0.812-3.266-0.097-4.789,3.174-5.398
	c3.64-0.681,7.293-1.396,10.832-2.46c2.256-0.68,3.286-0.211,3.813,2.035c4.211,17.891,8.461,35.772,12.692,53.658
	C380.924,505.411,380.938,505.737,381.023,506.391z"/>
<path fill="#FFFFFF" d="M261.282,516.89c0.817,0.54,1.617,1.066,2.417,1.595c12.508,8.254,24.996,16.541,37.544,24.734
	c2.685,1.754,5.545,3.26,8.404,4.724c2.578,1.318,2.494,3.087,1.167,5.171c-0.693,1.087-1.639,2.031-2.221,3.165
	c-1.538,2.995-2.844,7.493-5.517,8.027c-3.284,0.656-6.539-2.886-9.62-4.843c-12.942-8.223-25.674-16.775-38.626-24.981
	c-3.299-2.092-3.642-3.767-1.253-6.808c2.05-2.607,4.283-5.265,4.808-8.793C258.624,517.274,260.302,517.657,261.282,516.89z"/>
<path fill="#FFFFFF" d="M560.502,580.09c0.498,2.946-1.33,3.154-3.141,3.59c-14.729,3.551-29.446,7.154-44.17,10.735
	c-3.131,0.761-6.354,1.243-9.379,2.302c-4.115,1.439-5.938,0.447-6.994-4.009c-3.08-12.986-3.438-13.682,9.396-16.528
	c16.012-3.551,32.005-7.157,47.923-11.097c1.863-0.461,2.783-0.009,3.201,1.729C558.438,571.356,559.508,575.908,560.502,580.09z"/>
<path fill="#FFFFFF" d="M489.73,659.561c0.627,0.326,1.508,0.711,2.313,1.216c15.487,9.652,30.945,19.354,46.465,28.955
	c2.863,1.771,3.687,3.391,1.388,6.38c-2.251,2.926-4.041,6.229-5.832,9.478c-1.395,2.529-3.131,2.479-5.127,1.044
	c-14.974-10.747-30.925-19.968-46.539-29.709c-2.843-1.772-3.39-3.113-1.381-5.854c2.188-2.983,3.979-6.259,5.934-9.413
	C487.553,660.681,488.127,659.693,489.73,659.561z"/>
</svg>
