<?xml version="1.0" encoding="utf-8"?>
<!-- Generator: Adobe Illustrator 16.0.0, SVG Export Plug-In . SVG Version: 6.00 Build 0)  -->
<!DOCTYPE svg PUBLIC "-//W3C//DTD SVG 1.1//EN" "http://www.w3.org/Graphics/SVG/1.1/DTD/svg11.dtd">
<svg version="1.1" id="Layer_1" xmlns="http://www.w3.org/2000/svg" xmlns:xlink="http://www.w3.org/1999/xlink" x="0px" y="0px"
	 width="510px" height="526px" viewBox="143.5 348.5 510 526" enable-background="new 143.5 348.5 510 526" xml:space="preserve">
<path fill="#FFFFFF" d="M642.936,613.137c0.1-136.812-110.207-248.104-245.938-248.138
	c-135.505-0.032-245.771,110.941-245.999,247.577c-0.228,136.818,109.948,248.193,245.688,248.359
	C532.41,861.104,642.837,749.98,642.936,613.137z"/>
<path fill="#357795" d="M642.936,613.137c-0.099,136.845-110.524,247.967-246.246,247.801
	C260.947,860.77,150.772,749.396,151,612.577C151.228,475.941,261.494,364.968,396.999,365
	C532.729,365.032,643.034,476.324,642.936,613.137z"/>
<path fill="#FFFFFF" d="M1341.27,464.508c-0.115,133.003-107.276,240.879-239.166,240.764
	c-131.896-0.114-238.879-108.164-238.771-241.158c0.106-132.979,107.372-240.966,239.167-240.78
	C1234.455,223.519,1341.387,331.527,1341.27,464.508z"/>
<path fill="#FFFFFF" d="M553.104,460.751c-0.798-0.377-1.595-0.754-2.392-1.131c-10.328,11.003-20.657,22.006-30.979,33.001
	c-58.642-58.504-146.152-62.975-207.052-26.546c-65.749,39.33-86.526,109.429-81.659,151.987c17.089,0,34.179,0,51.074,0
	c3.883-59.535,30.364-102.57,89.36-119.339c42.009-11.939,77.756,4.538,110.401,30.961c-10.747,11.491-20.927,22.373-31.716,33.909
	c1.76,0.202,2.521,0.353,3.285,0.368c30.627,0.677,61.255,1.354,91.883,1.998c5.045,0.106,8.033-2.801,8.021-7.846
	c-0.048-19.657-0.168-39.314-0.224-58.972C553.074,486.346,553.104,473.549,553.104,460.751z"/>
<path fill="#FFFFFF" d="M515.719,606.222c-4.606,61.606-32.416,104.876-94.066,120.561c-40.999,10.432-85.206-12.193-105.131-32.976
	c10.174-10.875,20.353-21.758,30.615-32.729c-0.749-0.429-1.008-0.705-1.271-0.711c-31.46-0.702-62.922-1.409-94.384-2.04
	c-4.34-0.087-7.206,3.301-7.178,8.16c0.143,24.988,0.322,49.977,0.464,74.965c0.042,7.379,0.006,14.757,0.006,22.136
	c0.578,0.217,1.156,0.436,1.733,0.651c10.5-10.82,20.999-21.643,31.49-32.454c60.686,60.551,152.604,63.094,213.721,22.187
	c29.916-20.023,51.737-46.729,64.73-80.396c8.354-21.647,12.324-44.028,10.706-67.354
	C549.644,606.222,532.681,606.222,515.719,606.222z"/>
<path d="M1256.104,312.751c0,12.797-0.029,25.594,0.008,38.392c0.056,19.657,0.176,39.314,0.224,58.971
	c0.012,5.045-2.978,7.952-8.021,7.846c-30.629-0.646-61.257-1.321-91.884-1.998c-0.765-0.017-1.525-0.166-3.285-0.368
	c10.789-11.536,20.969-22.418,31.716-33.909c-32.646-26.423-68.394-42.901-110.401-30.961
	c-58.996,16.769-85.479,59.803-89.36,119.338c-16.896,0-33.984,0-51.074,0c-4.865-42.559,15.911-112.658,81.659-151.987
	c60.898-36.428,148.41-31.958,207.052,26.546c10.32-10.995,20.649-21.998,30.979-33.001
	C1254.51,311.998,1255.307,312.375,1256.104,312.751z"/>
<path d="M1218.719,458.222c16.962,0,33.926,0,51.436,0c1.619,23.326-2.353,45.707-10.706,67.354
	c-12.993,33.668-34.814,60.372-64.73,80.396c-61.116,40.907-153.035,38.364-213.721-22.187
	c-10.491,10.812-20.99,21.634-31.49,32.454c-0.577-0.218-1.155-0.436-1.731-0.651c0-7.379,0.035-14.757-0.008-22.136
	c-0.143-24.988-0.32-49.977-0.464-74.965c-0.027-4.859,2.839-8.247,7.179-8.16c31.462,0.631,62.924,1.338,94.384,2.04
	c0.265,0.006,0.522,0.281,1.271,0.711c-10.264,10.971-20.441,21.854-30.616,32.729c19.926,20.781,64.133,43.406,105.132,32.976
	C1186.303,563.099,1214.111,519.828,1218.719,458.222z"/>
</svg>
