<?xml version="1.0" encoding="iso-8859-1"?>
<!-- Generator: Adobe Illustrator 16.0.0, SVG Export Plug-In . SVG Version: 6.00 Build 0)  -->
<!DOCTYPE svg PUBLIC "-//W3C//DTD SVG 1.1//EN" "http://www.w3.org/Graphics/SVG/1.1/DTD/svg11.dtd">
<svg version="1.1" id="Layer_1" xmlns="http://www.w3.org/2000/svg" xmlns:xlink="http://www.w3.org/1999/xlink" x="0px" y="0px"
	 width="792px" height="1224px" viewBox="0 0 792 1224" style="enable-background:new 0 0 792 1224;" xml:space="preserve">
<path style="fill:#FFFFFF;" d="M653.936,869.895c-170.909,0-341.818,0-512.832,0c0-170.826,0-341.694,0-512.729
	c170.875,0,341.853,0,512.832,0C653.936,527.979,653.936,698.916,653.936,869.895z"/>
<path style="fill:#FFFFFF;" d="M642.936,613.137c0.099-136.813-110.207-248.104-245.938-248.138
	c-135.505-0.032-245.771,110.941-245.999,247.577c-0.228,136.819,109.948,248.193,245.689,248.36
	C532.41,861.104,642.837,749.98,642.936,613.137z"/>
<path style="fill-rule:evenodd;clip-rule:evenodd;fill:#357795;" d="M642.936,613.137c-0.099,136.844-110.525,247.967-246.247,247.8
	c-135.742-0.167-245.917-111.541-245.689-248.36c0.228-136.636,110.494-247.609,245.999-247.577
	C532.729,365.032,643.034,476.324,642.936,613.137z"/>
<path style="fill-rule:evenodd;clip-rule:evenodd;fill:#FFFFFF;" d="M1341.27,464.508
	c-0.116,133.003-107.277,240.879-239.166,240.764c-131.897-0.115-238.879-108.165-238.772-241.159
	c0.106-132.978,107.372-240.966,239.167-240.78C1234.455,223.519,1341.387,331.527,1341.27,464.508z"/>
<path style="fill-rule:evenodd;clip-rule:evenodd;fill:#FFFFFF;" d="M553.104,460.751c-0.798-0.377-1.595-0.754-2.392-1.131
	c-10.328,11.003-20.657,22.006-30.979,33.001c-58.641-58.504-146.152-62.975-207.051-26.546
	c-65.749,39.33-86.526,109.429-81.659,151.987c17.089,0,34.179,0,51.074,0c3.883-59.535,30.364-102.57,89.36-119.338
	c42.009-11.94,77.756,4.538,110.401,30.961c-10.747,11.491-20.926,22.373-31.715,33.909c1.759,0.202,2.521,0.352,3.285,0.368
	c30.627,0.677,61.255,1.353,91.883,1.998c5.045,0.106,8.033-2.801,8.021-7.846c-0.048-19.657-0.168-39.314-0.224-58.971
	C553.074,486.346,553.104,473.549,553.104,460.751z"/>
<path style="fill-rule:evenodd;clip-rule:evenodd;fill:#FFFFFF;" d="M515.719,606.222c-4.607,61.606-32.416,104.876-94.067,120.56
	c-40.999,10.432-85.206-12.193-105.131-32.975c10.174-10.875,20.353-21.758,30.616-32.729c-0.749-0.429-1.008-0.705-1.272-0.711
	c-31.46-0.702-62.922-1.409-94.384-2.04c-4.34-0.087-7.206,3.301-7.178,8.16c0.143,24.989,0.322,49.977,0.464,74.965
	c0.042,7.379,0.006,14.757,0.006,22.136c0.578,0.217,1.156,0.435,1.733,0.651c10.5-10.82,20.999-21.642,31.49-32.454
	c60.686,60.551,152.604,63.094,213.721,22.187c29.916-20.024,51.737-46.729,64.73-80.396c8.354-21.647,12.325-44.028,10.706-67.354
	C549.644,606.222,532.681,606.222,515.719,606.222z"/>
<path style="fill-rule:evenodd;clip-rule:evenodd;" d="M1256.104,312.751c0,12.797-0.03,25.594,0.007,38.392
	c0.056,19.657,0.176,39.314,0.224,58.971c0.012,5.045-2.977,7.952-8.021,7.846c-30.628-0.646-61.256-1.321-91.883-1.998
	c-0.765-0.017-1.526-0.166-3.285-0.368c10.789-11.536,20.968-22.418,31.715-33.909c-32.646-26.423-68.393-42.901-110.401-30.961
	c-58.996,16.769-85.478,59.803-89.36,119.338c-16.896,0-33.985,0-51.074,0c-4.866-42.558,15.911-112.658,81.659-151.987
	c60.898-36.428,148.41-31.958,207.051,26.546c10.321-10.995,20.65-21.998,30.979-33.001
	C1254.51,311.998,1255.307,312.375,1256.104,312.751z"/>
<path style="fill-rule:evenodd;clip-rule:evenodd;" d="M1218.719,458.222c16.962,0,33.925,0,51.435,0
	c1.619,23.326-2.352,45.707-10.706,67.354c-12.993,33.668-34.814,60.372-64.73,80.396c-61.116,40.907-153.035,38.364-213.721-22.187
	c-10.491,10.812-20.99,21.634-31.49,32.454c-0.577-0.217-1.155-0.435-1.732-0.651c0-7.379,0.035-14.757-0.007-22.136
	c-0.143-24.988-0.321-49.976-0.464-74.965c-0.028-4.859,2.838-8.247,7.178-8.16c31.462,0.631,62.924,1.338,94.384,2.04
	c0.265,0.006,0.523,0.282,1.272,0.711c-10.264,10.971-20.442,21.854-30.616,32.729c19.925,20.781,64.132,43.406,105.131,32.975
	C1186.303,563.099,1214.111,519.828,1218.719,458.222z"/>
</svg>
