<?xml version="1.0" encoding="utf-8"?>
<!-- Generator: Adobe Illustrator 16.0.0, SVG Export Plug-In . SVG Version: 6.00 Build 0)  -->
<!DOCTYPE svg PUBLIC "-//W3C//DTD SVG 1.1//EN" "http://www.w3.org/Graphics/SVG/1.1/DTD/svg11.dtd">
<svg version="1.1" id="Layer_1" xmlns="http://www.w3.org/2000/svg" xmlns:xlink="http://www.w3.org/1999/xlink" x="0px" y="0px"
	 width="510px" height="515px" viewBox="175.5 424.5 510 515" enable-background="new 175.5 424.5 510 515" xml:space="preserve">
<ellipse fill="#F1563F" cx="431" cy="684" rx="247" ry="248"/>
<g>
	<path fill="#FFFFFF" d="M613.846,616.365c0.122-4.828-0.621-7.994-2.758-12.201c-2.799-5.515-7.055-10.074-11.35-14.589
		c-1.42-1.491-3.186-2.711-4.835-4.007c-3.75-2.943-7.43-5.978-11.326-8.744c-3.211-2.279-6.661-4.281-10.071-6.313
		c-4.686-2.793-9.378-5.583-14.17-8.219c-3.854-2.122-7.841-4.053-11.812-5.993c-3.075-1.502-6.148-3.034-9.345-4.292
		c-5.194-2.046-10.458-3.96-15.754-5.774c-3.938-1.353-7.922-2.653-11.98-3.634c-7.51-1.81-15.062-3.495-22.766-4.479
		c-4.809-0.615-9.624-1.179-14.438-1.746c-3.232-0.381-6.46-0.851-9.706-1.062c-7.023-0.455-14.052-0.922-21.086-1.101
		c-6.3-0.161-12.613-0.479-18.918,0.212c-2.502,0.274-5.068,0.043-7.578,0.278c-5.986,0.561-11.984,1.1-17.926,1.951
		c-7.164,1.024-14.306,2.232-21.396,3.615c-4.388,0.855-8.662,2.203-12.998,3.292c-6.579,1.653-13.111,3.427-19.422,5.836
		c-4.216,1.612-8.485,3.117-12.632,4.869c-4.012,1.695-7.905,3.629-11.832,5.491c-2.062,0.979-4.153,1.923-6.11,3.062
		c-5.822,3.383-11.677,6.732-17.349,10.323c-5.074,3.212-9.965,6.678-14.855,10.127c-2.644,1.865-5.139,3.912-7.658,5.923
		c-2.081,1.656-4.149,3.334-6.131,5.09c-2.192,1.939-4.175,4.056-6.146,6.201c-2.59,2.816-4.989,5.73-7.106,8.846
		c-2.356,3.465-4.406,7.085-5.091,11.189c-0.923,5.537,0.43,10.746,2.957,15.74c1.176,2.322,2.796,4.409,4.936,6.041
		c3.662,2.791,7.993,3.313,12.538,2.631c3.615-0.545,6.908-1.938,10.229-3.33c5.593-2.348,10.647-5.47,15.546-8.799
		c4.312-2.93,8.421-6.118,12.558-9.264c4.861-3.697,9.615-7.516,14.499-11.192c2.856-2.151,5.759-4.29,8.841-6.151
		c5.956-3.603,12.317-6.562,18.798-9.273c10.79-4.521,21.77-8.6,33.377-11.016c6.653-1.387,13.314-2.812,20.045-3.788
		c6.3-0.913,12.695-1.276,19.053-1.839c2.169-0.192,4.35-0.371,6.521-0.364c8.205,0.024,16.396-0.021,24.604,0.649
		c9.933,0.812,19.762,2.163,29.494,3.988c8.602,1.612,17.096,3.764,25.32,6.646c5.155,1.805,10.27,3.72,15.317,5.763
		c4.847,1.961,9.702,3.948,14.335,6.295c5.461,2.771,10.651,5.979,16.015,8.92c4.573,2.508,8.741,5.519,12.792,8.658
		c5.912,4.583,12.217,8.584,19.172,11.717c3.506,1.579,7.146,2.584,11.053,2.777c3.725,0.185,7.127-0.568,9.773-3.08
		c1.447-1.373,2.836-2.898,3.807-4.573C612.91,624.172,614.33,620.459,613.846,616.365z M435.286,626.328c0,0.009,0,0.019,0,0.027
		c-4.214,0-8.433,0.099-12.642-0.025c-4.676-0.139-9.273,0.521-13.877,0.989c-3.586,0.363-7.127,1.239-10.641,2.06
		c-5.698,1.328-11.359,2.793-16.796,4.887c-3.412,1.315-6.844,2.597-10.195,4.031c-5.457,2.338-10.907,4.695-16.256,7.231
		c-3.088,1.464-6.054,3.182-8.928,4.981c-4.674,2.932-9.43,5.798-13.782,9.104c-5.317,4.037-10.124,8.614-14.208,13.771
		c-2.619,3.309-4.806,6.857-5.949,10.818c-0.661,2.289-1.168,4.611-1.172,7.084c-0.004,2.532,0.769,4.873,1.069,7.312
		c0.054,0.434,0.396,0.843,0.641,1.243c2.273,3.762,5.988,6.107,9.768,8.382c4.485,2.702,9.474,3.369,14.627,2.552
		c6.792-1.08,12.499-4.235,17.356-8.642c3.358-3.042,6.639-6.177,9.735-9.441c6.277-6.621,13.377-12.134,22.196-15.788
		c7.771-3.223,15.688-5.954,23.985-7.699c3.384-0.711,6.835-1.172,10.272-1.646c3.864-0.53,7.739-1.275,11.624-1.348
		c6.812-0.121,13.63-0.349,20.456,0.304c4.059,0.39,8.031,1.032,11.975,1.887c11.033,2.386,20.924,7.183,30.373,12.729
		c6.361,3.735,12.412,7.916,18.627,11.863c5.26,3.342,10.564,6.619,16.482,8.938c4.911,1.929,9.816,1.461,14.644-0.147
		c3.181-1.062,5.827-2.945,8.085-5.282c4.905-5.079,7.051-11.035,6.156-17.732c-0.804-6.017-4.035-11.105-8.283-15.625
		c-4.118-4.38-9.135-7.858-14.395-10.944c-8.734-5.127-17.615-10.027-27.003-14.148c-6.855-3.01-13.9-5.408-21.267-7.008
		c-4.229-0.918-8.524-1.598-12.809-2.287c-4.211-0.678-8.427-1.387-12.673-1.793c-4.181-0.399-8.398-0.522-12.604-0.606
		C445.021,626.253,440.152,626.328,435.286,626.328z M477.51,748.611c-0.186-1.442-0.68-3.881-0.765-6.33
		c-0.104-2.985-0.817-5.83-1.843-8.611c-1.443-3.91-3.689-7.372-7.161-10.107c-3.354-2.642-7.11-4.579-11.257-5.946
		c-5.645-1.858-11.4-3.146-17.432-3.144c-4.203,0.003-8.414,0.035-12.498,1.126c-8.586,2.294-15.881,6.327-21.342,13.03
		c-2.072,2.541-3.734,5.279-5.095,8.119c-3.271,6.834-4.007,14.089-2.671,21.391c1.671,9.133,6.493,16.717,14.829,22.068
		c6.818,4.378,14.536,6.604,22.886,6.691c6.217,0.062,12.273-0.729,18.092-2.954c7.117-2.728,12.838-7.011,17.248-12.753
		C475.447,764.752,477.223,757.398,477.51,748.611z"/>
</g>
</svg>
